<?xml version="1.0" encoding="UTF-8"?>
<svg id="_レイヤー_2" data-name="レイヤー 2" xmlns="http://www.w3.org/2000/svg" viewBox="0 0 154 193.43">
  <defs>
    <style>
      .cls-1 {
        fill: #44ba59;
      }
    </style>
  </defs>
  <g id="_レイヤー_1-2" data-name="レイヤー 1">
    <path id="leaf_-_4" data-name="leaf - 4" class="cls-1" d="m154,0S83.78-1.23,48.05,36.96C14.57,72.75,14.63,130.16,17.8,152.46c.35,2.43-.39,4.87-2.04,6.68-3.98,4.39-11.41,14.42-15.76,31.82,0,0,4.91,2.45,4.93,2.46,0,0,0,0,0,0,0-.02,7.62-26.12,16.72-32.33.9-.61,1.98-.89,3.06-.76,1.92.22,5.89.54,11.34.35,55.52-1.97,84.42-23.12,93.31-86.76C132.34,52.62,139.74,13.07,154,0Z"/>
  </g>
</svg>