<?xml version="1.0" encoding="UTF-8"?>
<svg id="_レイヤー_2" data-name="レイヤー 2" xmlns="http://www.w3.org/2000/svg" viewBox="0 0 151.45 192.16">
  <defs>
    <style>
      .cls-1 {
        fill: #44ba59;
      }
    </style>
  </defs>
  <g id="_レイヤー_1-2" data-name="レイヤー 1">
    <path id="leaf_-_3" data-name="leaf - 3" class="cls-1" d="m79.01,118.52c-15.36,2.52-23.42,12.12-26.94,18.35-.38.68-1.04,1.15-1.81,1.29-1.39.25-3.87.92-6.9,2.72,10.16-17.06,19.46-35.1,26.23-48.89.05.15.09.25.09.25,0,0,7.45-4.39,10.9-3.84.34.05.65.23.87.49.4.47,3.61,3.42,5.22,4.06,8.21,3.27,17.92,4.73,30,1.39,6.59-1.82,21.85-11.34,34.76-7.25,0,0-24.66-18.19-41.24-17.13-15.53.99-24.5,9.75-28.62,15.6-.45.64-1.15,1.04-1.93,1.1-1.65.13-4.87.69-8.89,2.93,4.49-9.22,7.71-16.23,9.1-19.31.08,0,.15-.02.23-.05,6.35-3.29,17.61-11.8,20.68-27.06C104.05,26.88,89.34,0,89.34,0c2.32,13.34-9.16,27.19-11.85,33.47-4.93,11.52-4.79,21.34-2.65,29.91.38,1.54,2.5,4.67,3.17,5.54-1.68,3.69-7.42,16.17-15.39,31.87-.75-3.92-2.11-6.47-2.95-7.74-.43-.65-.54-1.45-.31-2.2,2.1-6.84,3.53-19.29-5.19-32.18-9.32-13.76-38.8-22.12-38.8-22.12,11.14,7.7,12.97,25.6,15.56,31.92,4.76,11.59,11.86,18.38,19.47,22.86,1.49.88,5.8,1.61,6.41,1.64.35.02.67.15.92.39,2.05,1.93,3.16,7.87,3.51,10.11-7.91,15.44-17.8,33.56-28.01,49.35.28-3.21-.1-5.54-.43-6.83-.19-.75-.03-1.55.42-2.18,4.22-5.78,9.63-17.09,5.58-32.12-4.32-16.04-29.46-33.56-29.46-33.56,8.02,10.91,3.91,28.43,4.3,35.25.72,12.51,5.22,21.24,10.95,27.96,1.12,1.32,4.95,3.42,5.52,3.64.32.13.58.36.74.67,1.32,2.51.41,8.54.02,10.74-10.7,16.08-21.61,29.22-30.88,33.73l.98,2.03c12.21-5.94,26.85-25.68,40.23-47.69,1.4-.99,7.1-4.85,10.15-4.67.35.02.67.16.92.4.44.43,3.93,3.05,5.6,3.53,8.49,2.44,18.3,2.93,29.99-1.58,6.37-2.46,20.63-13.44,33.88-10.65,0,0-26.34-15.66-42.73-12.97Z"/>
  </g>
</svg>