<?xml version="1.0" encoding="UTF-8"?>
<svg id="_レイヤー_2" data-name="レイヤー 2" xmlns="http://www.w3.org/2000/svg" viewBox="0 0 136.61 195.53">
  <defs>
    <style>
      .cls-1 {
        fill: #44ba59;
      }
    </style>
  </defs>
  <g id="_レイヤー_1-2" data-name="レイヤー 1">
    <path id="leaf_-_2" data-name="leaf - 2" class="cls-1" d="m126.4,69.42c-5.7-4.22-14.53-7.98-23.66-10.05,6.89-5.97,12.74-13.16,15.76-19.37,7.58-15.64,1.2-28.1-16.93-32.32-12.68-12.28-29.54-9.53-37.12,6.11-2.85,5.87-4.82,14.27-5.38,22.86-6.19-6.83-13.64-12.58-20-15.45-15.84-7.16-28.12-.44-31.85,17.8-11.93,13.01-8.73,29.78,7.11,36.94,5.19,2.34,12.29,3.96,19.73,4.56-5.77,5.09-10.63,10.87-13.41,16.02-8.25,15.3-2.42,28.02,15.52,33.02,12.14,12.81,29.1,10.8,37.35-4.5,2.66-4.94,4.75-11.77,5.88-19.03,2.98,4,6.21,7.52,9.36,10.18,3.83,13.7,5.7,28.41,2.36,41.26-9.37,36.16-44.6,35.33-46.1,35.28l-.1,2.79s.16,0,.39,0c4.11,0,39.11-1.1,48.51-37.38,3.21-12.37,1.9-26.15-1.34-39.19,13.29,8.67,25.86,4.34,33.03-11.94,14.41-10.18,14.84-27.26.88-37.61Z"/>
  </g>
</svg>